# xmcd
#
# Track frame offsets: 
#        180
#        20415
#        34745
#        49069
#        64602
#        84860
#        103379
#        124294
#        150924
#        164584
#        178957
#        179866
#
# Disc length: 2593 seconds
#
# Revision: 0
# Processed by: cddbd v1.5.1PL0 Copyright (c) Steve Scherf et al.
# Submitted via: ExactAudioCopy v0.95a5
#
DISCID=a20a1f0c
DTITLE=The Just Met Band - Bill Allen, Rick Miller, Anna Stewart, John 
DTITLE=Michaud, Mary Schallert and Celine Vaillancourt - ten years ago - 
DTITLE=(indi, no cat no. POB 244724, Anch. AK 99524)
DYEAR=1996
DGENRE=AK Local
TTITLE0=Waterbound
TTITLE1=Saw You Running
TTITLE2=Little Rabbit
TTITLE3=Portland Rose
TTITLE4=Gentle Man's Love
TTITLE5=Jubilee Road
TTITLE6=Ballad of St. Anne's Reel
TTITLE7=Port Arthur, Indian on a Stump
TTITLE8=Goin' Down the Road
TTITLE9=Ebo Walker
TTITLE10=[undocumented cut!]
TTITLE11=Smile
EXTD=
EXTT0=
EXTT1=
EXTT2=
EXTT3=
EXTT4=
EXTT5=
EXTT6=
EXTT7=
EXTT8=
EXTT9=
EXTT10=
EXTT11=
PLAYORDER=
